<?xml version="1.0" standalone="no"?>
<!DOCTYPE svg PUBLIC "-//W3C//DTD SVG 20010904//EN"
 "http://www.w3.org/TR/2001/REC-SVG-20010904/DTD/svg10.dtd">
<svg version="1.0" xmlns="http://www.w3.org/2000/svg"
 width="600.000000pt" height="800.000000pt" viewBox="0 0 600.000000 800.000000"
 preserveAspectRatio="xMidYMid meet">

<g transform="translate(0.000000,800.000000) scale(0.100000,-0.100000)"
fill="#000000" stroke="none">
<path d="M2644 2292 c-24 -5 -53 -41 -54 -66 0 -10 11 -29 26 -42 l25 -24 554
0 554 0 21 27 c15 19 19 35 15 53 -13 54 9 52 -577 54 -299 0 -553 -1 -564 -2z"/>
<path d="M2612 2055 c-28 -33 -28 -56 2 -88 l25 -27 537 0 c295 0 547 3 559 6
26 6 54 51 49 79 -2 11 -13 28 -25 37 -20 17 -62 18 -573 18 l-552 0 -22 -25z"/>
<path d="M3163 1860 c-527 -5 -543 -6 -557 -25 -17 -23 -21 -65 -6 -65 6 0 10
-6 10 -14 0 -8 7 -17 16 -20 9 -3 264 -6 568 -6 514 0 554 1 568 18 27 30 30
57 8 84 -11 14 -30 27 -42 29 -13 2 -267 2 -565 -1z"/>
<path d="M2621 1639 c-26 -10 -25 -20 10 -113 25 -68 86 -149 106 -142 7 3 11
1 8 -4 -10 -16 72 -50 137 -56 49 -5 73 -14 111 -40 26 -19 53 -35 60 -37 6
-1 15 -6 18 -10 3 -4 33 -13 67 -19 82 -15 146 0 226 53 49 33 74 43 128 50
78 10 130 34 177 81 36 36 87 134 97 186 12 65 39 62 -570 61 -320 0 -561 -4
-575 -10z m179 -269 c-8 -5 -19 -10 -25 -10 -5 0 -3 5 5 10 8 5 20 10 25 10 6
0 3 -5 -5 -10z"/>
</g>
</svg>
